<svg width="143" height="223" viewBox="0 0 143 223" fill="none" xmlns="http://www.w3.org/2000/svg">
<circle cx="71.9644" cy="15.0874" r="13.8859" fill="#333333" stroke="black" stroke-width="2"/>
<rect x="59.5934" y="26.6453" width="24.339" height="1.73029" rx="0.865147" fill="#333333" stroke="black" stroke-width="1.73029"/>
<path d="M34.1572 174.951V170.928C43.6697 159.972 49.4285 145.665 49.4285 130.016C49.4285 117.239 45.5892 105.356 39.0014 95.4612H104.524C97.9365 105.356 94.0972 117.239 94.0972 130.016C94.0972 145.665 99.856 159.972 109.368 170.928V174.951H34.1572Z" fill="#333333" stroke="black" stroke-width="2"/>
<path fill-rule="evenodd" clip-rule="evenodd" d="M71.7629 27.5104H64.3552L33.3777 72.0464C30.6687 76.6795 28.877 87.6487 43.3824 94.4612H71.7629H100.143C114.649 87.6487 112.857 76.6795 110.148 72.0464L79.1706 27.5104H71.7629Z" fill="#333333"/>
<path d="M64.3552 27.5104V26.5104H63.8326L63.5343 26.9394L64.3552 27.5104ZM33.3777 72.0464L32.5568 71.4754L32.5343 71.5077L32.5145 71.5417L33.3777 72.0464ZM43.3824 94.4612L42.9573 95.3664L43.1593 95.4612H43.3824V94.4612ZM100.143 94.4612V95.4612H100.367L100.568 95.3664L100.143 94.4612ZM110.148 72.0464L111.011 71.5417L110.991 71.5077L110.969 71.4754L110.148 72.0464ZM79.1706 27.5104L79.9915 26.9394L79.6931 26.5104H79.1706V27.5104ZM64.3552 28.5104H71.7629V26.5104H64.3552V28.5104ZM34.1987 72.6174L65.1761 28.0814L63.5343 26.9394L32.5568 71.4754L34.1987 72.6174ZM43.8075 93.5561C36.7722 90.2519 33.8367 86.0225 32.8957 82.1976C31.9425 78.3233 32.9915 74.688 34.241 72.5512L32.5145 71.5417C31.0549 74.0379 29.8535 78.2037 30.9536 82.6754C32.0658 87.1965 35.4871 91.858 42.9573 95.3664L43.8075 93.5561ZM71.7629 93.4612H43.3824V95.4612H71.7629V93.4612ZM71.7629 95.4612H100.143V93.4612H71.7629V95.4612ZM100.568 95.3664C108.039 91.858 111.46 87.1965 112.572 82.6754C113.672 78.2037 112.471 74.0379 111.011 71.5417L109.285 72.5512C110.534 74.688 111.583 78.3233 110.63 82.1976C109.689 86.0225 106.754 90.2519 99.7183 93.5561L100.568 95.3664ZM110.969 71.4754L79.9915 26.9394L78.3496 28.0814L109.327 72.6174L110.969 71.4754ZM79.1706 26.5104H71.7629V28.5104H79.1706V26.5104Z" fill="black"/>
<rect x="30.4986" y="95.4612" width="82.5286" height="9.22081" rx="4.61041" fill="#333333" stroke="black" stroke-width="2"/>
<rect x="23.0902" y="176.951" width="97.3452" height="12.9595" fill="#333333" stroke="black" stroke-width="2"/>
<rect x="10.0589" y="191.911" width="123.408" height="13.707" fill="#333333" stroke="black" stroke-width="2"/>
<rect x="1.75177" y="207.617" width="140.022" height="13.707" fill="#333333" stroke="black" stroke-width="2"/>
</svg>
