<svg width="143" height="163" viewBox="0 0 143 163" fill="none" xmlns="http://www.w3.org/2000/svg">
<rect x="17.5666" y="35.6213" width="108.393" height="9.22081" rx="4.61041" fill="#333333" stroke="black" stroke-width="2"/>
<rect x="23.0901" y="117.111" width="97.3452" height="12.9595" fill="#333333" stroke="black" stroke-width="2"/>
<rect x="10.0589" y="132.071" width="123.408" height="13.707" fill="#333333" stroke="black" stroke-width="2"/>
<rect x="1.75177" y="147.778" width="140.022" height="13.707" fill="#333333" stroke="black" stroke-width="2"/>
<path d="M32.3097 45.8422C33.5743 46.3733 36.1033 47.834 36.1033 49.4275C36.1033 51.0211 30.0336 96.038 26.9987 118.347C26.4929 119.808 25.0261 122.849 23.2052 123.327C21.3843 123.805 54.8183 123.526 71.7629 123.327C88.7075 123.526 122.141 123.805 120.321 123.327C118.5 122.849 117.033 119.808 116.527 118.347C113.492 96.038 107.422 51.0211 107.422 49.4275C107.422 47.834 109.951 46.3733 111.216 45.8422H71.7629H32.3097Z" fill="#333333" stroke="black" stroke-width="2"/>
<path d="M125.87 1.04126L123.34 36.116L109.13 34.985H20.9587L15.9464 1.26561H41.4637L42.8307 26.8589H59.3866V1.26561H83.6888V26.8589H109.13L108.894 1.31443L125.87 1.04126Z" fill="#3D3D3D" stroke="black" stroke-width="2"/>
<path d="M120.794 21.2708L122.005 1.31323H125.69L124.373 21.2708H124.399L124.023 26.5718L123.847 29.2434H123.834L123.341 36.2054H20.1491L15.7872 1.39807H35.0577L36.6234 21.2708H47.9448L46.2586 1.39807H72.7556V21.2708H89.015V1.39807H112.742V21.2708H120.794Z" fill="#333333" stroke="black" stroke-width="2"/>
</svg>
