<svg width="186" height="209" viewBox="0 0 186 209" fill="none" xmlns="http://www.w3.org/2000/svg">
<path d="M80.2874 1.05334C73.5248 1.05334 75.0715 14.8424 76.6903 21.7369C74.8636 26.9398 68.7991 29.2418 65.2751 31.9115C61.7511 34.5813 64.8479 38.5325 58.5474 41.6293C52.2468 44.7262 45.5191 50.386 33.452 59.9971C21.3848 69.6081 14.1231 73.0253 6.43433 73.9864C0.283284 74.7553 0.596532 79.4327 1.52204 81.6752L19.8898 102.179H28.1125C28.6465 99.1887 32.2773 93.6356 40.6068 92.4609C48.9364 91.2863 67.9448 95.6646 79.5848 89.6844C88.8968 84.9003 95.0692 75.2323 96.9914 70.9963L93.9503 79.8841C86.2621 101.027 53.7072 111.918 38.3908 114.721C32.8649 126.134 47.1894 149.256 55.0424 159.391V162.98H136.223V159.687C147.59 148.32 154.061 124.127 155.876 113.452C156.287 124.004 148.937 145.296 145.21 154.623L170.563 163.097C185.651 140.062 192.411 101.421 172.485 62.5771C156.502 31.4192 124.032 21.6698 109.795 20.6898L109.064 24.7944C97.8414 5.36989 85.2035 0.873478 80.2874 1.05334Z" fill="#333333" stroke="black" stroke-width="2"/>
<rect x="45.4593" y="163.578" width="97.3452" height="12.9595" fill="#333333" stroke="black" stroke-width="2"/>
<rect x="32.428" y="178.538" width="123.408" height="13.707" fill="#333333" stroke="black" stroke-width="2"/>
<rect x="24.1209" y="194.245" width="140.022" height="13.707" fill="#333333" stroke="black" stroke-width="2"/>
</svg>
